<svg width="59" height="59" viewBox="0 0 59 59" fill="none" xmlns="http://www.w3.org/2000/svg">
<path d="M23.9604 4.36628C25.8976 -0.8626 33.2932 -0.862613 35.2175 4.36627L39.5496 16.1375C40.1542 17.7803 41.4466 19.076 43.0877 19.6849L54.8645 24.0539C60.0807 25.9891 60.0716 33.3701 54.8507 35.3053L43.0632 39.6743C41.4206 40.2832 40.125 41.5789 39.5164 43.2217L35.1555 54.9929C33.2183 60.2218 25.8228 60.2218 23.8984 54.9929L19.5663 43.2217C18.9617 41.5789 17.6694 40.2832 16.0282 39.6743L4.25139 35.3053C-0.964758 33.3701 -0.955713 25.9891 4.26518 24.0539L16.0527 19.6849C17.6953 19.076 18.9909 17.7803 19.5995 16.1375L23.9604 4.36628Z" fill="#78B8BF"/>
</svg>
