<svg width="36" height="36" viewBox="0 0 36 36" fill="none" xmlns="http://www.w3.org/2000/svg">
<path d="M12.429 4.24323C14.3662 -0.985657 21.7618 -0.985664 23.6861 4.24322L24.9317 7.62785C25.5363 9.27058 26.8287 10.5663 28.4698 11.1752L31.8816 12.4409C37.0977 14.376 37.0887 21.7571 31.8678 23.6922L28.4529 24.958C26.8103 25.5668 25.5147 26.8626 24.9062 28.5053L23.6522 31.8899C21.7151 37.1188 14.3195 37.1188 12.3951 31.8899L11.1495 28.5053C10.545 26.8626 9.25257 25.5668 7.61143 24.958L4.19967 23.6922C-1.01648 21.7571 -1.00743 14.376 4.21346 12.4409L7.62832 11.1752C9.27096 10.5663 10.5665 9.27058 11.1751 7.62785L12.429 4.24323Z" fill="currentColor"/>
</svg>
