<svg width="89" height="87" viewBox="0 0 89 87" fill="none" xmlns="http://www.w3.org/2000/svg">
<path d="M37.7848 5.81826C39.756 -0.880079 49.244 -0.880091 51.2152 5.81825L53.7304 14.3647C54.9005 18.3406 59.2495 20.435 63.0874 18.8709L71.3375 15.5087C77.8036 12.8735 83.7192 20.2915 79.7113 26.009L74.5976 33.3041C72.2187 36.6978 73.2928 41.4038 76.9086 43.4293L84.6811 47.7831C90.7729 51.1955 88.6616 60.4456 81.6926 60.8769L72.8007 61.4272C68.6641 61.6833 65.6545 65.4572 66.3254 69.547L67.7675 78.3384C68.8977 85.2287 60.3494 89.3454 55.6671 84.1657L49.6928 77.5568C46.9135 74.4824 42.0865 74.4824 39.3072 77.5568L33.333 84.1656C28.6506 89.3453 20.1023 85.2287 21.2325 78.3384L22.6746 69.547C23.3455 65.4572 20.3359 61.6833 16.1993 61.4272L7.30744 60.8769C0.338388 60.4456 -1.77288 51.1955 4.31886 47.7831L12.0914 43.4293C15.7072 41.4038 16.7813 36.6978 14.4024 33.3041L9.28868 26.009C5.28078 20.2915 11.1964 12.8735 17.6624 15.5086L25.9125 18.8709C29.7505 20.435 34.0995 18.3406 35.2696 14.3648L37.7848 5.81826Z" fill="#AA6363"/>
</svg>
